<svg width="32" height="32" viewBox="0 0 32 32" fill="none" xmlns="http://www.w3.org/2000/svg">
<rect width="32" height="32" fill="black"/>
<g filter="url(#filter0_f_14_2)">
<path d="M10 9H22V8H10V9Z" fill="white"/>
<path d="M20 16H12V15H20V16Z" fill="white"/>
<path d="M20 24H10V23H20V24Z" fill="white"/>
<path d="M22 17V22H21V17H22Z" fill="white"/>
<path d="M11 22V10H10V22H11Z" fill="white"/>
</g>
<g filter="url(#filter1_f_14_2)">
<path d="M10 9H22V8H10V9Z" fill="white"/>
<path d="M20 16H12V15H20V16Z" fill="white"/>
<path d="M20 24H10V23H20V24Z" fill="white"/>
<path d="M22 17V22H21V17H22Z" fill="white"/>
<path d="M11 22V10H10V22H11Z" fill="white"/>
</g>
<path d="M10 9H22V8H10V9Z" fill="white"/>
<path d="M20 16H12V15H20V16Z" fill="white"/>
<path d="M20 24H10V23H20V24Z" fill="white"/>
<path d="M22 17V22H21V17H22Z" fill="white"/>
<path d="M11 22V10H10V22H11Z" fill="white"/>
<defs>
<filter id="filter0_f_14_2" x="6" y="4" width="20" height="24" filterUnits="userSpaceOnUse" color-interpolation-filters="sRGB">
<feFlood flood-opacity="0" result="BackgroundImageFix"/>
<feBlend mode="normal" in="SourceGraphic" in2="BackgroundImageFix" result="shape"/>
<feGaussianBlur stdDeviation="2" result="effect1_foregroundBlur_14_2"/>
</filter>
<filter id="filter1_f_14_2" x="8" y="6" width="16" height="20" filterUnits="userSpaceOnUse" color-interpolation-filters="sRGB">
<feFlood flood-opacity="0" result="BackgroundImageFix"/>
<feBlend mode="normal" in="SourceGraphic" in2="BackgroundImageFix" result="shape"/>
<feGaussianBlur stdDeviation="1" result="effect1_foregroundBlur_14_2"/>
</filter>
</defs>
</svg>
